<?xml version="1.0" standalone="no"?>
<!DOCTYPE svg PUBLIC "-//W3C//DTD SVG 20010904//EN"
 "http://www.w3.org/TR/2001/REC-SVG-20010904/DTD/svg10.dtd">
<svg version="1.0" xmlns="http://www.w3.org/2000/svg"
 width="70.000000pt" height="70.000000pt" viewBox="0 0 1024.000000 1024.000000"
 preserveAspectRatio="xMidYMid meet">

<g transform="translate(0.000000,1024.000000) scale(0.100000,-0.100000)"
fill="#000000" stroke="none">
<path d="M6025 8979 c-33 -4 -82 -15 -110 -23 -27 -9 -59 -16 -70 -16 -12 0
-41 -13 -65 -30 -25 -16 -63 -41 -84 -56 -22 -14 -94 -81 -160 -148 -90 -91
-136 -130 -180 -151 -64 -31 -123 -35 -182 -10 -43 18 -129 82 -179 134 -49
51 -91 64 -210 63 -76 0 -100 -4 -150 -27 -102 -45 -220 -147 -309 -265 -67
-91 -146 -213 -146 -227 0 -8 -17 -40 -37 -71 -44 -67 -123 -222 -123 -239 0
-19 -50 -121 -66 -134 -8 -6 -14 -17 -14 -24 0 -6 -15 -41 -34 -76 -19 -35
-39 -84 -46 -108 -6 -24 -22 -60 -34 -80 -32 -49 -126 -243 -126 -258 0 -6
-34 -78 -75 -159 -41 -81 -75 -153 -75 -159 0 -12 -19 -49 -103 -205 -56 -105
-77 -147 -77 -159 0 -6 -33 -61 -73 -123 -41 -62 -82 -127 -93 -145 -73 -122
-371 -454 -488 -543 -32 -25 -77 -60 -100 -77 -68 -53 -284 -183 -356 -214
-25 -11 -48 -22 -132 -67 -79 -41 -118 -111 -96 -173 23 -66 92 -78 342 -59
250 18 367 36 616 97 58 14 137 31 175 39 80 16 316 89 360 112 16 8 52 21 80
28 502 132 587 145 793 125 114 -12 330 -61 357 -81 6 -4 46 -20 90 -35 74
-25 191 -86 274 -142 19 -13 40 -23 48 -23 8 0 35 -13 59 -30 24 -16 63 -43
87 -58 49 -33 211 -116 247 -127 14 -4 39 -18 55 -30 17 -13 52 -30 78 -39 26
-8 55 -20 64 -25 92 -51 331 -151 360 -151 11 0 48 -12 83 -26 159 -64 385
-115 533 -119 133 -3 302 18 336 44 36 25 47 66 27 96 -20 31 -46 32 -213 9
-100 -14 -132 -15 -212 -4 -145 18 -345 75 -466 130 -33 16 -80 33 -105 39
-54 14 -180 72 -180 83 0 4 26 8 59 8 32 0 92 7 132 15 188 39 218 44 276 50
78 9 113 33 113 79 0 40 -32 76 -68 76 -34 0 -235 -38 -269 -51 -31 -12 -201
-49 -223 -49 -11 0 -10 4 6 18 67 54 96 102 140 231 55 161 74 264 74 406 0
61 4 115 8 122 5 8 24 -17 52 -69 25 -45 64 -104 88 -131 24 -27 50 -66 59
-86 21 -50 20 -47 98 -146 108 -136 185 -209 335 -316 132 -94 445 -249 504
-249 12 0 50 -11 85 -25 75 -31 289 -88 391 -105 108 -17 405 -26 414 -11 4 6
29 11 55 11 37 0 52 5 68 23 38 42 43 60 23 87 l-19 25 -233 2 c-234 2 -280 5
-308 16 -8 3 -28 8 -45 10 -44 7 -278 65 -311 78 -16 6 -36 12 -44 14 -85 17
-323 126 -419 191 -20 13 -41 24 -48 24 -7 0 -23 12 -36 26 -12 14 -49 45 -83
69 -34 24 -85 72 -114 107 -30 35 -70 79 -91 98 -20 19 -40 45 -44 58 -3 12
-22 43 -41 67 -19 25 -34 49 -34 53 0 4 -17 37 -38 73 -49 83 -90 200 -128
364 -15 67 -18 226 -5 327 8 61 55 202 100 303 24 52 109 165 125 165 6 0 17
-20 24 -45 10 -38 20 -51 59 -75 40 -26 57 -30 116 -30 38 0 67 -3 65 -7 -7
-14 -35 -78 -43 -98 -15 -40 -11 -81 14 -129 31 -59 83 -86 177 -93 111 -7
214 25 344 108 63 39 68 41 150 41 183 1 300 35 382 112 20 19 48 42 62 51 39
26 83 100 113 191 l27 84 -22 62 c-13 35 -33 73 -45 87 -22 23 -165 97 -203
104 -10 2 -36 11 -57 20 -77 33 -199 50 -399 56 -184 6 -199 7 -219 27 -43 44
12 77 147 89 41 4 77 7 81 7 5 0 13 4 18 8 6 5 41 14 79 21 92 16 224 84 298
154 32 30 61 55 65 55 31 0 123 228 123 302 0 27 -43 146 -67 185 -15 25 -185
184 -187 175 -1 -2 -8 -1 -16 2 -144 49 -175 56 -258 56 -48 0 -116 -7 -151
-15 -158 -38 -222 -47 -336 -47 -144 -1 -235 15 -265 47 -12 12 -36 66 -54
118 -25 72 -47 114 -89 169 -50 66 -105 118 -122 118 -4 0 -30 11 -60 25 -61
27 -157 37 -250 24z m175 -148 c53 -23 143 -87 160 -113 20 -32 54 -116 70
-174 24 -86 87 -155 160 -175 25 -7 49 -14 54 -17 14 -8 44 -11 181 -18 107
-5 134 -3 245 21 69 14 136 29 150 33 14 4 68 7 120 7 84 0 105 -4 183 -35
102 -39 122 -57 177 -152 53 -93 51 -130 -17 -232 -18 -28 -33 -56 -33 -62 0
-14 -68 -68 -111 -88 -19 -9 -49 -26 -67 -37 -36 -23 -146 -54 -229 -65 -29
-3 -56 -10 -58 -14 -3 -5 -31 -12 -62 -16 -32 -4 -72 -13 -90 -21 -69 -29
-118 -109 -106 -178 7 -42 51 -103 102 -143 l44 -33 141 5 c166 5 334 -18 450
-63 39 -16 92 -36 119 -45 70 -26 80 -39 75 -105 -7 -84 -60 -154 -173 -226
-72 -45 -260 -71 -300 -41 -11 9 -26 16 -34 16 -12 0 -148 -84 -161 -100 -50
-59 -278 -103 -306 -59 -7 13 49 124 81 159 12 14 29 39 37 55 8 17 21 44 29
60 17 34 7 90 -18 99 -20 8 -114 -14 -130 -30 -32 -31 -154 -45 -187 -21 -16
12 -17 20 -8 79 8 52 21 82 58 140 26 40 60 85 76 100 15 15 28 33 28 40 -1
32 -18 38 -106 41 -99 3 -139 19 -172 65 l-20 28 24 69 c56 159 12 245 -124
245 -76 0 -209 -38 -301 -87 -46 -24 -88 -40 -91 -36 -4 4 -18 37 -30 73 -22
64 -66 138 -101 172 -16 16 -65 32 -129 44 -41 7 -243 -15 -275 -30 -16 -8
-65 -30 -107 -50 -42 -20 -79 -36 -82 -36 -4 0 -25 -13 -48 -30 -22 -16 -48
-30 -57 -30 -9 0 -32 -10 -51 -21 -31 -19 -44 -21 -130 -15 -123 7 -142 10
-157 19 -7 5 -17 6 -21 3 -5 -3 -37 -7 -73 -10 -77 -5 -140 -16 -154 -26 -5
-4 -35 -15 -65 -25 -30 -10 -71 -30 -90 -45 -19 -15 -48 -30 -65 -34 -16 -4
-53 -26 -81 -49 -29 -23 -75 -60 -104 -82 -28 -22 -85 -79 -126 -127 -61 -71
-81 -103 -105 -168 -37 -103 -37 -133 0 -171 43 -43 58 -37 80 33 7 20 27 56
46 81 18 24 40 59 48 78 17 39 187 207 232 229 17 8 50 29 75 46 81 55 195
103 292 123 52 11 67 10 157 -13 119 -31 171 -32 230 -6 24 11 51 20 61 20 9
0 34 11 54 25 67 45 219 117 291 137 127 35 192 40 239 19 65 -29 76 -49 98
-168 24 -136 33 -146 113 -141 54 3 70 10 147 61 91 60 186 97 251 97 20 0 37
-2 37 -4 0 -3 -7 -35 -16 -73 -25 -106 -8 -199 49 -260 11 -13 24 -23 28 -23
4 0 24 -9 43 -21 l35 -20 -35 -49 c-22 -31 -53 -58 -81 -72 -24 -12 -57 -37
-71 -54 -68 -78 -192 -277 -192 -306 0 -10 -9 -41 -19 -70 -41 -112 -54 -181
-55 -310 0 -71 -4 -128 -7 -128 -3 0 -17 -16 -30 -35 l-25 -34 -51 77 c-68
104 -76 120 -113 242 -28 91 -67 174 -159 333 -29 52 -59 94 -103 146 -21 24
-38 52 -38 63 0 10 -32 51 -70 90 -39 40 -86 88 -105 109 -18 20 -54 45 -79
54 -25 10 -46 21 -46 25 0 10 -108 51 -197 76 -104 29 -249 5 -349 -58 -21
-14 -51 -29 -66 -34 -47 -16 -316 -266 -369 -344 -14 -19 -51 -71 -84 -114
-59 -79 -91 -134 -180 -311 -54 -108 -87 -155 -163 -233 -114 -117 -199 -252
-244 -387 -39 -118 -42 -204 -9 -300 11 -33 18 -61 17 -62 -2 -2 -32 -12 -67
-22 -35 -10 -77 -24 -94 -30 -67 -24 -284 -91 -345 -106 -36 -9 -96 -25 -135
-35 -97 -27 -295 -67 -385 -79 -111 -15 -321 -34 -325 -29 -3 2 46 34 108 70
62 37 119 73 127 80 9 8 34 25 55 38 22 13 42 26 45 30 3 3 36 27 75 53 65 44
254 212 300 266 11 13 41 47 66 75 49 54 104 128 177 236 24 36 52 74 62 85
10 11 28 40 41 65 13 25 37 64 53 87 32 43 100 153 102 162 4 24 41 102 114
240 27 51 57 117 66 145 9 28 20 56 24 61 13 16 130 252 130 261 0 11 117 243
130 259 4 5 12 24 16 40 4 17 43 103 86 193 43 89 78 168 78 175 0 6 15 37 33
67 17 30 39 69 47 85 8 17 25 44 37 61 13 17 30 52 39 76 8 25 35 69 59 97 25
29 59 72 76 96 58 81 185 174 261 191 95 21 159 0 229 -74 77 -81 179 -132
275 -136 86 -4 170 20 225 63 21 17 41 31 45 31 4 0 71 65 150 144 79 79 153
147 166 151 13 3 50 17 83 30 122 47 227 56 295 26z m-1032 -1549 c108 -38
234 -123 257 -175 9 -21 39 -66 67 -100 27 -34 58 -79 69 -99 10 -20 25 -41
32 -45 7 -4 32 -42 56 -83 24 -41 52 -84 61 -95 21 -23 50 -105 50 -139 0 -12
-11 -33 -24 -45 -13 -12 -31 -39 -41 -60 -18 -42 -82 -94 -164 -136 l-52 -26
-31 33 c-17 18 -41 49 -54 70 -13 20 -28 39 -34 43 -6 3 -20 25 -31 48 -12 23
-28 46 -35 50 -13 8 -62 92 -74 127 -20 61 -116 195 -200 279 -81 82 -170 152
-170 135 0 -3 23 -31 50 -63 28 -32 50 -62 50 -68 0 -6 20 -38 45 -71 25 -33
55 -81 66 -107 12 -26 46 -86 77 -132 32 -47 68 -106 82 -133 30 -57 68 -107
133 -177 27 -29 55 -69 62 -90 13 -36 16 -38 54 -37 28 0 49 8 64 22 34 32 44
27 49 -20 5 -49 -6 -98 -24 -110 -7 -4 -41 -8 -76 -8 -58 0 -65 -2 -105 -39
-23 -21 -54 -41 -69 -45 -20 -5 -37 -23 -66 -74 -21 -37 -43 -78 -49 -92 -7
-14 -28 -59 -47 -101 -23 -50 -38 -100 -42 -143 -4 -36 -10 -66 -13 -66 -3 0
-15 14 -27 30 -11 16 -36 41 -55 54 -70 51 -198 136 -204 136 -3 0 -91 42
-194 93 -391 191 -457 219 -472 201 -9 -11 -9 -20 0 -37 14 -26 93 -82 131
-92 14 -4 32 -13 40 -21 8 -7 47 -27 85 -45 39 -18 86 -43 106 -55 20 -12 56
-28 80 -34 85 -22 184 -60 194 -73 6 -8 25 -21 43 -31 17 -9 32 -18 32 -20 0
-2 -43 7 -96 20 -53 13 -133 28 -178 34 -45 6 -105 15 -135 21 -120 20 -317
10 -524 -29 l-98 -19 -19 24 c-23 30 -34 99 -27 164 9 75 122 295 177 344 12
11 36 40 53 65 16 25 53 68 81 95 48 47 68 81 150 255 15 30 44 82 66 115 21
33 39 67 39 76 2 42 266 331 376 413 138 102 167 113 296 115 59 1 94 -5 157
-27z"/>
<path d="M3210 4860 c-58 -4 -106 -8 -107 -9 -2 0 -3 -25 -3 -55 0 -87 -8 -85
267 -70 85 4 148 3 175 -4 24 -6 79 -16 123 -22 44 -7 94 -18 110 -25 17 -7
77 -23 135 -34 126 -25 175 -36 187 -44 5 -3 65 -17 133 -30 115 -23 243 -39
425 -52 39 -3 124 -10 190 -15 192 -16 269 -13 289 9 19 20 17 71 -3 109 -11
21 -17 22 -144 22 -139 0 -431 22 -557 41 -78 12 -239 44 -395 78 -49 10 -112
23 -140 29 -27 5 -95 21 -150 35 -188 47 -286 53 -535 37z"/>
<path d="M2710 4750 c0 -5 6 -10 14 -10 8 0 18 5 21 10 3 6 -3 10 -14 10 -12
0 -21 -4 -21 -10z"/>
<path d="M6755 4459 c-44 -5 -147 -13 -230 -19 -185 -13 -262 -23 -275 -36
-18 -18 -28 -68 -18 -93 10 -27 -26 -27 438 0 107 6 305 9 439 7 197 -4 250
-2 273 9 32 17 43 48 30 84 -9 21 -20 26 -83 37 -96 15 -472 23 -574 11z"/>
<path d="M2992 4040 c-10 -17 -23 -20 -76 -20 -72 0 -72 1 -133 -119 -19 -36
-37 -69 -42 -75 -5 -6 -21 -42 -36 -81 -15 -38 -35 -81 -45 -95 -15 -22 -59
-106 -94 -177 -6 -13 -14 -23 -17 -23 -10 0 -149 288 -155 322 -11 57 -101
235 -126 250 -48 27 -125 12 -133 -25 -10 -48 -38 -310 -46 -432 -5 -71 -11
-146 -14 -165 -3 -19 -10 -100 -14 -180 -8 -139 -4 -179 19 -165 5 3 11 1 15
-5 3 -5 26 -10 50 -10 48 0 75 19 76 53 2 78 10 192 19 252 13 92 18 154 20
240 l1 70 59 -115 c32 -63 74 -147 92 -188 56 -125 113 -167 179 -131 25 13
87 108 115 177 12 29 30 65 40 80 11 15 35 58 54 96 20 37 40 68 45 67 6 0 11
-24 12 -53 14 -317 27 -496 39 -520 20 -39 83 -40 121 -2 l26 26 -7 136 c-3
75 -9 293 -13 485 -3 191 -9 347 -12 347 -3 0 -12 -9 -19 -20z"/>
<path d="M4832 4005 c-25 -18 -31 -51 -21 -117 5 -29 12 -82 15 -118 3 -36 8
-68 11 -73 6 -9 10 -36 19 -122 3 -33 8 -67 11 -75 4 -8 5 -19 4 -24 -1 -5 5
-30 13 -55 8 -25 15 -60 15 -76 0 -17 3 -43 6 -60 8 -43 13 -71 26 -147 15
-88 38 -110 113 -112 63 0 96 21 96 63 0 15 6 35 13 46 8 11 25 56 40 100 14
44 31 94 38 110 12 29 24 74 54 215 24 109 27 120 36 120 5 0 11 -12 15 -27 3
-16 25 -95 49 -178 23 -82 48 -177 55 -210 7 -33 17 -66 22 -72 6 -7 7 -13 4
-13 -4 0 0 -10 8 -22 9 -12 16 -32 16 -45 0 -53 77 -93 145 -74 24 6 32 16 42
52 21 71 45 193 58 299 4 30 9 64 12 75 2 11 10 65 18 120 8 55 21 141 30 190
43 255 44 245 -46 245 -62 0 -88 -15 -91 -53 -3 -39 -5 -52 -11 -67 -4 -8 -11
-46 -16 -85 -6 -38 -15 -95 -20 -125 -6 -30 -13 -82 -16 -115 -3 -33 -8 -85
-12 -115 -6 -51 -7 -53 -14 -25 -5 17 -18 64 -29 105 -48 172 -100 383 -100
408 0 38 -46 72 -97 72 -59 0 -86 -28 -114 -121 -12 -40 -28 -84 -35 -98 -8
-14 -14 -33 -14 -41 -1 -8 -8 -33 -16 -55 -22 -58 -54 -182 -59 -224 -2 -20
-10 -56 -18 -81 l-14 -45 -11 40 c-6 22 -13 58 -15 80 -5 40 -13 82 -42 245
-9 47 -18 126 -21 175 -4 57 -11 95 -20 104 -19 20 -106 23 -132 6z"/>
<path d="M4060 3710 c-72 -10 -148 -69 -156 -122 -14 -84 45 -118 134 -77 26
13 55 26 65 31 13 6 22 0 37 -25 11 -17 20 -35 20 -39 0 -3 -38 -18 -84 -33
-70 -22 -91 -34 -131 -75 -42 -43 -49 -56 -61 -117 -7 -37 -10 -72 -6 -78 4
-5 7 -16 9 -24 2 -19 80 -97 121 -123 18 -11 39 -17 47 -14 8 3 17 1 20 -5 7
-11 73 -2 91 12 6 5 32 12 58 15 35 5 53 14 73 38 47 56 53 84 53 256 0 151
-2 165 -27 232 -30 75 -58 105 -123 128 -61 21 -94 26 -140 20z m117 -468 c-2
-39 -6 -49 -27 -59 -14 -7 -40 -13 -57 -13 -26 0 -34 5 -39 24 -8 33 5 54 52
80 56 32 73 25 71 -32z"/>
<path d="M6056 3691 c-4 -6 -17 -10 -29 -10 -41 3 -93 -28 -111 -66 -19 -39
-15 -64 14 -90 19 -17 24 -17 95 -2 41 9 80 14 87 12 11 -4 41 -47 56 -77 7
-15 -36 -8 -48 7 -20 25 -82 19 -121 -12 -38 -30 -100 -110 -107 -139 -30
-129 15 -251 106 -290 64 -26 122 -27 192 -1 55 21 72 33 110 82 39 50 45 63
44 104 -1 27 -10 60 -22 80 -16 27 -18 39 -10 65 13 39 11 140 -4 186 -14 44
-78 129 -98 129 -9 1 -20 5 -25 10 -16 15 -122 25 -129 12z m105 -411 c24 -13
25 -61 2 -83 -23 -20 -66 -31 -92 -22 -38 12 -22 73 27 99 33 18 38 19 63 6z
m-191 -180 c0 -5 -2 -10 -4 -10 -3 0 -8 5 -11 10 -3 6 -1 10 4 10 6 0 11 -4
11 -10z"/>
<path d="M3396 3681 c-3 -4 -19 -11 -36 -14 -43 -9 -88 -81 -86 -139 1 -37 5
-44 29 -52 20 -7 33 -7 45 2 63 44 143 52 169 15 18 -23 16 -32 -4 -27 -48 12
-217 -77 -245 -129 -6 -12 -11 -57 -12 -102 -1 -78 0 -82 38 -133 49 -67 96
-92 175 -92 33 0 63 5 66 10 3 6 14 10 23 10 9 0 35 7 59 16 65 25 76 61 80
268 5 239 -18 298 -132 352 -51 24 -158 34 -169 15z m135 -436 c-3 -59 -24
-87 -60 -83 -38 4 -54 43 -34 82 21 41 43 56 73 53 23 -2 24 -5 21 -52z"/>
<path d="M6642 3643 c-48 -25 -111 -143 -128 -242 -25 -142 -16 -183 69 -318
55 -86 221 -127 310 -75 44 26 47 26 47 10 0 -68 -56 -143 -114 -153 -41 -8
-196 11 -210 25 -6 6 -22 10 -38 10 -23 0 -29 -6 -39 -39 -16 -54 -5 -106 29
-129 67 -47 247 -54 318 -13 19 12 44 21 55 21 11 0 37 12 58 26 32 21 46 42
76 110 41 97 49 160 61 484 l6 195 -25 27 c-28 30 -97 53 -133 44 -32 -8 -45
-37 -54 -125 -1 -10 -30 23 -30 34 0 25 -54 78 -100 98 -59 27 -117 30 -158
10z m123 -182 c9 -54 45 -91 88 -91 18 0 37 -4 43 -9 5 -5 18 -11 28 -13 41
-7 26 -77 -30 -140 -41 -46 -64 -58 -112 -58 -34 0 -45 6 -76 40 -38 42 -43
63 -37 160 3 47 42 135 63 143 24 10 26 7 33 -32z"/>
<path d="M7577 3645 c-41 -14 -64 -32 -133 -101 -57 -56 -78 -129 -71 -241 4
-71 9 -90 36 -131 48 -75 100 -122 171 -155 54 -25 81 -31 157 -35 l93 -4 30
32 c41 44 40 79 -5 119 -42 36 -37 35 -77 15 -38 -20 -92 -13 -122 14 -12 11
-35 27 -53 36 -50 25 -73 62 -73 118 0 63 18 106 63 145 58 51 145 56 201 12
26 -20 26 -20 53 -1 16 11 40 33 55 49 36 38 29 64 -33 108 -49 35 -50 35
-152 35 -60 -1 -118 -7 -140 -15z"/>
</g>
</svg>
